PathFileType	4	(X/Y/Z)	C:\Motion Data\9999\Fregly Locomotion Course\Processed\9999bj_kick4.trc
DataRate	CameraRate	NumFrames	NumMarkers	Units	OrigDataRate	OrigDataStartFrame	OrigNumFrames
200.00	200.00	       4	35	mm	200.00	256	       292
Frame#	Time	R_Heel			R_Midfoot_Superior			R_Midfoot_Lateral			R_Toe			L_Heel			L_Midfoot_Superior			L_Midfoot_Lateral			L_Toe			R_Shank_Superior			R_Shank_Inferior			R_Shank_Lateral			R_Shank Posterior			L_Shank_Superior			L_Shank_Inferior			L_Shank_Lateral			L_Shank_Posterior			R_Patella			L_Patella			R_Thigh_Superior			R_Thigh_Inferior			R_Thigh_Lateral			L_Thigh_Superior			L_Thigh_Inferior			L_Thigh_Lateral			R_Asis			L_Asis			Sacral			R_Shoulder			L_Shoulder			Back			R_Elbow			L_Elbow			R_Wrist			L_Wrist			Ball			
		X1	Y1	Z1	X2	Y2	Z2	X3	Y3	Z3	X4	Y4	Z4	X5	Y5	Z5	X6	Y6	Z6	X7	Y7	Z7	X8	Y8	Z8	X9	Y9	Z9	X10	Y10	Z10	X11	Y11	Z11	X12	Y12	Z12	X13	Y13	Z13	X14	Y14	Z14	X15	Y15	Z15	X16	Y16	Z16	X17	Y17	Z17	X18	Y18	Z18	X19	Y19	Z19	X20	Y20	Z20	X21	Y21	Z21	X22	Y22	Z22	X23	Y23	Z23	X24	Y24	Z24	X25	Y25	Z25	X26	Y26	Z26	X27	Y27	Z27	X28	Y28	Z28	X29	Y29	Z29	X30	Y30	Z30	X31	Y31	Z31	X32	Y32	Z32	X33	Y33	Z33	X34	Y34	Z34	X35	Y35	Z35

256	   1.275	  396.24029999999999	  282.25891000000001	  265.83098999999999	  538.41705000000002	  179.39793000000000	  291.78043000000002	  468.80441000000002	  178.27678000000000	  343.66048999999998	  575.55364999999995	   78.55605000000000	  303.66091999999998	  351.00207999999998	   44.32932000000000	  179.79041000000001	  529.88660000000004	   94.18443000000001	  170.18371999999999	  478.43914999999998	   27.25822000000000	  117.19225000000000	  629.38403000000005	   58.96843000000000	  174.07539000000000	  720.35663000000000	  466.52758999999998	  290.07285000000002	  611.04436999999996	  346.64276000000001	  293.27947999999998	  620.54571999999996	  439.22960999999998	  349.78026999999997	  588.61767999999995	  528.02209000000005	  282.21915000000001	  534.79607999999996	  378.14258000000001	   94.38885000000001	  498.38839999999999	  228.09297000000001	  124.08386000000000	  456.60324000000003	  318.06763000000001	   38.06318000000000	  392.67099000000002	  212.55637999999999	  116.75460000000000	  809.10095000000001	  574.00414999999998	  273.38198999999997	  579.05340999999999	  472.55804000000001	   73.09107000000000	  712.37230999999997	  799.55449999999996	  273.43169999999998	  755.54858000000002	  717.17687999999998	  269.06454000000002	  659.53112999999996	  732.01746000000003	  330.15246999999999	  626.67236000000003	  721.40381000000002	    1.01559000000000	  609.68268000000000	  605.22729000000004	   40.75417000000000	  520.93102999999996	  652.17145000000005	  -16.72829000000000	  581.59045000000003	  988.41980000000001	  253.73853000000000	  606.71112000000005	  944.94141000000002	   -6.09629000000000	  418.87943000000001	 1022.20789000000002	  103.63442000000001	  543.38440000000003	 1425.83483999999999	  275.21021000000002	  597.76971000000003	 1430.53906000000006	 -107.13216000000000	  517.67400999999995	 1468.50671000000011	   53.10395000000000	  453.83553999999998	 1147.34618999999998	  379.15512000000001	  531.53186000000005	 1152.86499000000003	 -255.82666000000000	  618.02948000000004	  976.23668999999995	  498.46206999999998	  673.82250999999997	  945.84924000000001	 -353.07132000000001	                 NaN	                 NaN	                 NaN
257	   1.280	  397.49939000000001	  277.84442000000001	  264.56842000000000	  541.85675000000003	  177.93045000000001	  290.95065000000000	  472.03741000000002	  175.48205999999999	  342.53832999999997	  580.99066000000005	   78.49503000000000	  303.05660999999998	  350.91949000000000	   44.23471000000000	  179.86680999999999	  529.71527000000003	   93.73641000000001	  170.67273000000000	  478.50774999999999	   27.16785000000000	  117.34205000000000	  629.47020999999995	   58.99847000000000	  174.03550999999999	  721.22571000000005	  465.18655000000001	  288.80266999999998	  612.28479000000004	  344.35946999999999	  291.72170999999997	  621.37579000000005	  437.53778000000000	  348.50519000000003	  589.07239000000004	  526.37951999999996	  281.35687000000001	  535.77495999999996	  377.82607999999999	   94.40215000000001	  498.93182000000002	  227.89186000000001	  124.28171000000000	  456.93502999999998	  317.58713000000000	   38.60511000000000	  393.08080999999999	  212.35077999999999	  116.30665999999999	  809.50098000000003	  572.82494999999994	  272.12826999999999	  579.84398999999996	  472.48962000000000	   73.43349000000001	  713.66785000000004	  798.23328000000004	  273.20812999999998	  756.11792000000003	  715.93011000000001	  268.38763000000000	  660.45507999999995	  731.34209999999996	  329.86356000000001	  626.42102000000000	  720.31652999999994	    1.21327000000000	  611.14586999999995	  604.35955999999999	   41.06500000000000	  522.43695000000002	  652.01801000000000	  -17.16873000000000	  583.78319999999997	  988.63396999999998	  253.17549000000000	  607.42107999999996	  944.04223999999999	   -6.04046000000000	  420.79973999999999	 1022.15239999999994	  103.28013000000000	  545.78527999999994	 1426.17444000000000	  275.29755000000000	  600.23737000000006	 1430.33240000000001	 -107.69804000000001	  520.67102000000000	 1468.16541000000007	   52.26699000000000	  456.78417999999999	 1147.72620000000006	  378.21737999999999	  531.27057000000002	 1151.52148000000011	 -255.12406999999999	  620.67418999999995	  975.91254000000004	  496.75015000000002	  668.04974000000004	  941.63733000000002	 -351.86162999999999	                 NaN	                 NaN	                 NaN
258	   1.285	  398.95650999999998	  273.25482000000000	  263.53823999999997	  545.24854000000005	  177.48801000000000	  290.31076000000002	  475.76895000000002	  173.00467000000000	  341.93126999999998	  586.27386000000001	   77.49315000000000	  302.58078000000000	  351.06112999999999	   44.03359000000000	  179.76273000000000	  529.71527000000003	   93.73641000000001	  170.67273000000000	  478.49265000000003	   27.04143000000000	  117.20222000000000	  629.07556000000000	   58.81288000000000	  174.07876999999999	  722.01367000000005	  463.71906000000001	  287.57611000000003	  613.67731000000003	  342.56954999999999	  291.01285000000001	  622.03527999999994	  435.25067000000001	  347.10753999999997	  589.73212000000001	  524.29169000000002	  279.61707000000001	  536.23437999999999	  377.46539000000001	   94.61148000000000	  499.67075000000000	  227.61286999999999	  124.35581000000001	  457.92007000000001	  317.61144999999999	   38.21982000000000	  393.74628000000001	  212.24428000000000	  115.95178000000000	  809.93579000000000	  571.28216999999995	  270.81441999999998	  580.86950999999999	  472.21215999999998	   73.58717000000000	  714.57825000000003	  797.21594000000005	  272.68430000000001	  756.92987000000005	  714.44934000000001	  267.70969000000002	  661.49639999999999	  729.87658999999996	  328.92728000000000	  629.54602000000000	  720.68933000000004	    2.44230000000000	  612.19542999999999	  604.13311999999996	   41.01970000000000	  523.63940000000002	  651.50005999999996	  -17.54814000000000	  586.00585999999998	  988.53661999999997	  253.74674999999999	  608.77039000000002	  943.58916999999997	   -5.59027000000000	  422.70522999999997	 1022.20654000000002	  103.01662000000000	  548.29259999999999	 1425.77062999999998	  274.88339000000002	  602.33685000000003	 1428.95215000000007	 -108.89103000000000	  523.48168999999996	 1468.25902999999994	   52.66259000000000	  459.47485000000000	 1147.42908000000011	  378.02985000000001	  531.41425000000004	 1150.98071000000004	 -255.04309000000001	  623.27617999999995	  975.85113999999999	  495.58456000000001	  664.52904999999998	  937.99860000000001	 -351.90697999999998	                 NaN	                 NaN	                 NaN
259	   1.290	  400.31182999999999	  269.07166000000001	  261.94301999999999	  550.37671000000000	  177.89125000000001	  287.20434999999998	  479.27620999999999	  170.44949000000000	  340.97867000000002	  592.36755000000005	   76.81339000000000	  301.12380999999999	  350.99615000000000	   44.07795000000000	  179.69739999999999	  529.26215000000002	   92.05432999999999	  171.18704000000000	  478.67484000000002	   26.80550000000000	  117.36823000000000	  629.18231000000003	   58.79799000000000	  174.13910000000001	  723.17895999999996	  462.43358999999998	  286.26830999999999	  615.41010000000006	  341.00562000000002	  289.93069000000003	  623.43566999999996	  433.46588000000003	  345.78510000000000	  590.18488000000002	  522.56048999999996	  278.01143999999999	  536.55724999999995	  377.47320999999999	   94.57375000000000	  500.06583000000001	  226.87921000000000	  124.92448000000000	  458.43401999999998	  317.68668000000002	   38.16151000000000	  394.35962000000001	  211.99558999999999	  115.60638000000000	  811.04589999999996	  570.08630000000005	  269.46719000000002	  581.97808999999995	  471.74453999999997	   73.69843000000000	  716.16431000000000	  796.15363000000002	  272.32977000000000	  757.92609000000004	  713.58789000000002	  266.91579999999999	  662.78070000000002	  728.77013999999997	  327.44290000000001	  630.31206999999995	  719.53386999999998	    3.04092000000000	  613.14777000000004	  603.40355999999997	   42.18767000000000	  525.51391999999998	  651.42449999999997	  -17.02833000000000	  588.32696999999996	  988.19946000000004	  253.46690000000001	  610.79052999999999	  943.09589000000005	   -5.17877000000000	  425.12783999999999	 1022.01000999999997	  102.71213000000000	  550.71312999999998	 1426.14685000000009	  274.69024999999999	  606.02985000000001	 1427.93456999999989	 -109.17111000000000	  525.37549000000001	 1467.80199999999991	   50.73142000000000	  462.22332999999998	 1147.54271999999992	  376.96895999999998	  532.55768000000000	 1149.04761000000008	 -253.79272000000000	  626.47686999999996	  975.12285999999995	  492.92858999999999	  661.17700000000002	  934.05395999999996	 -350.27611999999999	                 NaN	                 NaN	                 NaN
